<?xml version="1.0" encoding="UTF-8" standalone="no"?>
<!DOCTYPE svg PUBLIC "-//W3C//DTD SVG 1.1//EN"
 "http://www.w3.org/Graphics/SVG/1.1/DTD/svg11.dtd">
<!-- Generated by graphviz version 2.38.0 (20140413.2041)
 -->
<!-- Pages: 1 -->
<svg width="154pt" height="216pt"
 viewBox="0.00 0.00 153.77 216.00" xmlns="http://www.w3.org/2000/svg" xmlns:xlink="http://www.w3.org/1999/xlink">
<g id="graph0" class="graph" transform="scale(0.715232 0.715232) rotate(0) translate(4 298)">
<polygon fill="white" stroke="none" points="-4,4 -4,-298 211,-298 211,4 -4,4"/>
<!-- n00 -->
<g id="node1" class="node"><title>n00</title>
<ellipse fill="none" stroke="black" cx="53" cy="-276" rx="27.1022" ry="18"/>
<text text-anchor="middle" x="53" y="-271.8" font-family="Times,serif" font-size="14.00">[0,0]</text>
</g>
<!-- n10 -->
<g id="node2" class="node"><title>n10</title>
<polygon fill="none" stroke="black" points="54,-208 0,-208 0,-172 54,-172 54,-208"/>
<text text-anchor="middle" x="27" y="-185.8" font-family="Times,serif" font-size="14.00">[1,0]</text>
</g>
<!-- n00&#45;&gt;n10 -->
<g id="edge1" class="edge"><title>n00&#45;&gt;n10</title>
<path fill="none" stroke="black" d="M47.7385,-258.001C44.2026,-246.578 39.4657,-231.274 35.4117,-218.176"/>
<polygon fill="black" stroke="black" points="38.6433,-216.78 32.3429,-208.262 31.9563,-218.849 38.6433,-216.78"/>
<text text-anchor="middle" x="47.6431" y="-228.8" font-family="Times,serif" font-size="14.00"> S</text>
</g>
<!-- n01 -->
<g id="node3" class="node"><title>n01</title>
<ellipse fill="none" stroke="black" cx="99" cy="-190" rx="27.1022" ry="18"/>
<text text-anchor="middle" x="99" y="-185.8" font-family="Times,serif" font-size="14.00">[0,1]</text>
</g>
<!-- n00&#45;&gt;n01 -->
<g id="edge2" class="edge"><title>n00&#45;&gt;n01</title>
<path fill="none" stroke="black" d="M61.8693,-258.804C68.4875,-246.718 77.6544,-229.979 85.2238,-216.157"/>
<polygon fill="black" stroke="black" points="88.4246,-217.598 90.158,-207.146 82.2849,-214.236 88.4246,-217.598"/>
<text text-anchor="middle" x="84.8052" y="-228.8" font-family="Times,serif" font-size="14.00"> D</text>
</g>
<!-- n11 -->
<g id="node4" class="node"><title>n11</title>
<polygon fill="none" stroke="black" points="99,-122 45,-122 45,-86 99,-86 99,-122"/>
<text text-anchor="middle" x="72" y="-99.8" font-family="Times,serif" font-size="14.00">[1,1]</text>
</g>
<!-- n01&#45;&gt;n11 -->
<g id="edge3" class="edge"><title>n01&#45;&gt;n11</title>
<path fill="none" stroke="black" d="M93.5361,-172.001C89.8278,-160.464 84.8476,-144.97 80.6104,-131.788"/>
<polygon fill="black" stroke="black" points="83.9407,-130.711 77.5484,-122.262 77.2765,-132.853 83.9407,-130.711"/>
<text text-anchor="middle" x="92.6431" y="-142.8" font-family="Times,serif" font-size="14.00"> S</text>
</g>
<!-- n02 -->
<g id="node5" class="node"><title>n02</title>
<ellipse fill="none" stroke="black" cx="144" cy="-104" rx="27.1022" ry="18"/>
<text text-anchor="middle" x="144" y="-99.8" font-family="Times,serif" font-size="14.00">[0,2]</text>
</g>
<!-- n01&#45;&gt;n02 -->
<g id="edge4" class="edge"><title>n01&#45;&gt;n02</title>
<path fill="none" stroke="black" d="M107.676,-172.804C114.151,-160.718 123.118,-143.979 130.523,-130.157"/>
<polygon fill="black" stroke="black" points="133.713,-131.614 135.35,-121.146 127.543,-128.308 133.713,-131.614"/>
<text text-anchor="middle" x="130.805" y="-142.8" font-family="Times,serif" font-size="14.00"> D</text>
</g>
<!-- n12 -->
<g id="node6" class="node"><title>n12</title>
<polygon fill="none" stroke="black" points="135,-36 81,-36 81,-0 135,-0 135,-36"/>
<text text-anchor="middle" x="108" y="-13.8" font-family="Times,serif" font-size="14.00">[1,2]</text>
</g>
<!-- n02&#45;&gt;n12 -->
<g id="edge5" class="edge"><title>n02&#45;&gt;n12</title>
<path fill="none" stroke="black" d="M136.888,-86.4043C131.875,-74.7081 125.058,-58.8015 119.305,-45.3779"/>
<polygon fill="black" stroke="black" points="122.501,-43.9506 115.345,-36.1379 116.067,-46.7081 122.501,-43.9506"/>
<text text-anchor="middle" x="133.643" y="-56.8" font-family="Times,serif" font-size="14.00"> S</text>
</g>
<!-- etc -->
<g id="node7" class="node"><title>etc</title>
<text text-anchor="middle" x="180" y="-13.8" font-family="Times,serif" font-size="14.00">...</text>
</g>
<!-- n02&#45;&gt;etc -->
<g id="edge6" class="edge"><title>n02&#45;&gt;etc</title>
<path fill="none" stroke="black" d="M151.112,-86.4043C156.125,-74.7081 162.942,-58.8015 168.695,-45.3779"/>
<polygon fill="black" stroke="black" points="171.933,-46.7081 172.655,-36.1379 165.499,-43.9506 171.933,-46.7081"/>
<text text-anchor="middle" x="170.805" y="-56.8" font-family="Times,serif" font-size="14.00"> D</text>
</g>
</g>
</svg>
