<?xml version="1.0" encoding="UTF-8" standalone="no"?>
<!DOCTYPE svg PUBLIC "-//W3C//DTD SVG 1.1//EN"
 "http://www.w3.org/Graphics/SVG/1.1/DTD/svg11.dtd">
<!-- Generated by graphviz version 2.38.0 (20140413.2041)
 -->
<!-- Pages: 1 -->
<svg width="113pt" height="144pt"
 viewBox="0.00 0.00 113.33 144.00" xmlns="http://www.w3.org/2000/svg" xmlns:xlink="http://www.w3.org/1999/xlink">
<g id="graph0" class="graph" transform="scale(0.666667 0.666667) rotate(0) translate(4 212)">
<polygon fill="white" stroke="none" points="-4,4 -4,-212 166,-212 166,4 -4,4"/>
<!-- n00 -->
<g id="node1" class="node"><title>n00</title>
<ellipse fill="none" stroke="black" cx="53" cy="-190" rx="27.1022" ry="18"/>
<text text-anchor="middle" x="53" y="-185.8" font-family="Times,serif" font-size="14.00">[0,0]</text>
</g>
<!-- n10 -->
<g id="node2" class="node"><title>n10</title>
<polygon fill="none" stroke="black" points="54,-122 0,-122 0,-86 54,-86 54,-122"/>
<text text-anchor="middle" x="27" y="-99.8" font-family="Times,serif" font-size="14.00">[1,0]</text>
</g>
<!-- n00&#45;&gt;n10 -->
<g id="edge1" class="edge"><title>n00&#45;&gt;n10</title>
<path fill="none" stroke="black" d="M47.7385,-172.001C44.2026,-160.578 39.4657,-145.274 35.4117,-132.176"/>
<polygon fill="black" stroke="black" points="38.6433,-130.78 32.3429,-122.262 31.9563,-132.849 38.6433,-130.78"/>
<text text-anchor="middle" x="47.6431" y="-142.8" font-family="Times,serif" font-size="14.00"> S</text>
</g>
<!-- n01 -->
<g id="node3" class="node"><title>n01</title>
<ellipse fill="none" stroke="black" cx="99" cy="-104" rx="27.1022" ry="18"/>
<text text-anchor="middle" x="99" y="-99.8" font-family="Times,serif" font-size="14.00">[0,1]</text>
</g>
<!-- n00&#45;&gt;n01 -->
<g id="edge2" class="edge"><title>n00&#45;&gt;n01</title>
<path fill="none" stroke="black" d="M61.8693,-172.804C68.4875,-160.718 77.6544,-143.979 85.2238,-130.157"/>
<polygon fill="black" stroke="black" points="88.4246,-131.598 90.158,-121.146 82.2849,-128.236 88.4246,-131.598"/>
<text text-anchor="middle" x="84.8052" y="-142.8" font-family="Times,serif" font-size="14.00"> D</text>
</g>
<!-- n11 -->
<g id="node4" class="node"><title>n11</title>
<polygon fill="none" stroke="black" points="90,-36 36,-36 36,-0 90,-0 90,-36"/>
<text text-anchor="middle" x="63" y="-13.8" font-family="Times,serif" font-size="14.00">[1,1]</text>
</g>
<!-- n01&#45;&gt;n11 -->
<g id="edge3" class="edge"><title>n01&#45;&gt;n11</title>
<path fill="none" stroke="black" d="M91.8876,-86.4043C86.8749,-74.7081 80.0578,-58.8015 74.3048,-45.3779"/>
<polygon fill="black" stroke="black" points="77.5011,-43.9506 70.3448,-36.1379 71.0671,-46.7081 77.5011,-43.9506"/>
<text text-anchor="middle" x="88.6431" y="-56.8" font-family="Times,serif" font-size="14.00"> S</text>
</g>
<!-- n02 -->
<g id="node5" class="node"><title>n02</title>
<polygon fill="none" stroke="black" points="162,-36 108,-36 108,-0 162,-0 162,-36"/>
<text text-anchor="middle" x="135" y="-13.8" font-family="Times,serif" font-size="14.00">[0,2]</text>
</g>
<!-- n01&#45;&gt;n02 -->
<g id="edge4" class="edge"><title>n01&#45;&gt;n02</title>
<path fill="none" stroke="black" d="M106.112,-86.4043C111.125,-74.7081 117.942,-58.8015 123.695,-45.3779"/>
<polygon fill="black" stroke="black" points="126.933,-46.7081 127.655,-36.1379 120.499,-43.9506 126.933,-46.7081"/>
<text text-anchor="middle" x="125.805" y="-56.8" font-family="Times,serif" font-size="14.00"> D</text>
</g>
</g>
</svg>
